<svg width="35" height="24" viewBox="0 0 35 24" fill="none" xmlns="http://www.w3.org/2000/svg">
<path d="M16 9.49722C16 9.94537 16.1435 10.3069 16.4306 10.5819C16.7269 10.8569 17.0833 10.9944 17.5 10.9944C17.9167 10.9944 18.2685 10.8569 18.5556 10.5819C18.8519 10.3069 19 9.94537 19 9.49722C19 9.04907 18.8519 8.6875 18.5556 8.4125C18.2685 8.1375 17.9167 8 17.5 8C17.0833 8 16.7269 8.1375 16.4306 8.4125C16.1435 8.6875 16 9.04907 16 9.49722ZM16.1944 11.9722V19H18.7917V11.9722H16.1944Z" fill="#141527"/>
<path d="M34 4.46865C33.8308 4.85584 33.6227 5.22567 33.3788 5.57272C33.1792 5.79474 32.9301 5.96895 32.6508 6.0819C32.3714 6.19485 32.0692 6.24349 31.7675 6.22411H31.1501C31.1501 6.3566 31.1312 6.47804 31.1275 6.59213C31.1275 7.76981 31.1463 8.94381 31.1275 10.1178C31.0119 13.6186 29.4896 16.9338 26.8904 19.3447C24.2913 21.7556 20.8248 23.068 17.2425 22.9973C13.6601 22.9266 10.2507 21.4785 7.7532 18.967C5.2557 16.4555 3.87147 13.083 3.90057 9.5805C3.90057 8.58316 3.90057 7.58581 3.90057 6.58847V6.22045H3.16643C2.6052 6.22734 2.06402 6.01673 1.66118 5.63467C1.25835 5.25261 1.02664 4.73017 1.01673 4.18158C0.979085 2.77942 1.01673 3.15112 1.01673 1.74527C1.01164 1.64572 1.02829 1.54624 1.06554 1.45344C1.10278 1.36065 1.15979 1.27666 1.23278 1.20705C1.30576 1.13744 1.39305 1.08381 1.48887 1.0497C1.58469 1.0156 1.68684 1.0018 1.78853 1.00923H2.01441C12.345 1.00923 22.6743 1.00923 33.0023 1.00923C33.2034 0.981463 33.4083 1.01673 33.5875 1.10997C33.7668 1.20321 33.9112 1.34963 34 1.52815V4.46865ZM5.31987 6.25724C5.31987 7.31715 5.31987 8.3476 5.31987 9.37439C5.28236 11.0253 5.58716 12.6665 6.21589 14.1992C7.14656 16.4649 8.77212 18.3933 10.8692 19.7195C13.3329 21.2913 16.2961 21.9363 19.2093 21.535C22.1225 21.1337 24.7879 19.7133 26.7114 17.5372C28.3829 15.7067 29.4003 13.3946 29.6103 10.9495C29.7383 9.43696 29.6743 7.90966 29.6931 6.38972C29.6887 6.34483 29.6799 6.30046 29.6667 6.25724H5.31987ZM2.43983 2.41876V3.89085C2.43983 4.60114 2.69584 4.84771 3.43374 4.84771C4.98106 4.84771 6.52463 4.84771 8.07195 4.84771H31.583C32.3171 4.84771 32.5694 4.60113 32.5694 3.88349C32.5694 2.90822 32.5694 3.7142 32.5694 2.73894V2.42613L2.43983 2.41876Z" fill="#141527" stroke="#141527" stroke-width="0.5"/>
</svg>
